# File created by Blade
# Date/Time:  Tue Jan 27 18:50:05 2015
# Frame Rate: 120.000 fps
#------------------------------------------------------
:FULLY-SPECIFIED
:DEGREES
3227
root -3.774806 32.266676 -7.249339 33.372347 -31.293310 -13.031268
Spine 4.505368 5.350966 -3.852976
Head -2.877219 6.099948 6.876595
LeftShoulder -5.585648 1.006155 22.827698
LeftArm 52.316524 -7.524447 -83.608822
LeftForeArm -23.138051 -0.000000 124.533017
LeftHand -18.339327 -0.000000 8.195272
LeftHandThumb1 -26.253704 0.000000 33.147579
RightShoulder 4.226944 25.703198 -14.003211
RightArm 32.997571 -43.459993 94.377497
RightForeArm -23.532515 -0.000000 61.175639
RightHand -12.435465 -0.000000 -21.588594
RightHandThumb1 -24.326973 -0.000000 -32.862282
LeftUpLeg -30.613248 10.053868 -2.436154
LeftLeg 18.484748 -0.000000 -0.000000
LeftFoot -30.818469 27.136441 -23.477196
LeftToeBase 8.207021 -0.000000 -0.000000
RightUpLeg -6.583979 -28.898927 -8.925228
RightLeg 38.332806 -0.000000 -0.000000
RightFoot -1.446647 -25.400593 12.001306
RightToeBase 10.181494 -0.000000 -0.000000
3228
root -3.766015 32.282901 -7.286212 33.725873 -31.805418 -13.257717
Spine 4.565096 5.437959 -3.842509
Head -3.330151 6.205082 6.799151
LeftShoulder -5.504775 0.961801 22.811532
LeftArm 52.039404 -8.126876 -84.114730
LeftForeArm -23.575184 -0.000000 125.293851
LeftHand -18.287153 -0.000000 7.589300
LeftHandThumb1 -26.253704 0.000000 33.147579
RightShoulder 4.286207 25.940637 -14.234063
RightArm 32.572489 -43.135712 95.688565
RightForeArm -24.418182 0.000000 60.748389
RightHand -11.918366 -0.000000 -20.950809
RightHandThumb1 -24.326973 -0.000000 -32.862282
LeftUpLeg -30.786643 10.151147 -2.393373
LeftLeg 18.364798 -0.000000 -0.000000
LeftFoot -30.925579 27.493945 -23.732199
LeftToeBase 8.262728 -0.000000 -0.000000
RightUpLeg -7.024712 -28.342965 -8.371872
RightLeg 36.441518 -0.000000 -0.000000
RightFoot -1.500369 -25.021168 12.954488
RightToeBase 10.709570 -0.000000 -0.000000
3229
root -3.756585 32.295954 -7.319324 33.975858 -32.329120 -13.447791
Spine 4.721528 5.530843 -3.879163
Head -3.769473 6.299306 6.806208
LeftShoulder -5.441674 0.950472 22.817739
LeftArm 51.823784 -8.655069 -84.546794
LeftForeArm -23.833798 0.000000 126.052545
LeftHand -18.209125 0.000000 7.707203
LeftHandThumb1 -26.253704 0.000000 33.147579
RightShoulder 4.352113 26.293584 -14.313671
RightArm 32.405076 -43.326355 96.050396
RightForeArm -24.676502 0.000000 60.767713
RightHand -11.849910 -0.000000 -20.796958
RightHandThumb1 -24.326973 -0.000000 -32.862282
LeftUpLeg -30.862647 10.265631 -2.379432
LeftLeg 18.238237 -0.000000 -0.000000
LeftFoot -30.998923 27.826083 -23.946708
LeftToeBase 8.265473 -0.000000 -0.000000
RightUpLeg -7.368102 -27.790452 -7.895837
RightLeg 34.518382 -0.000000 -0.000000
RightFoot -1.078071 -24.769401 13.344119
RightToeBase 10.358928 -0.000000 -0.000000
3230
root -3.746655 32.305375 -7.354532 34.214518 -32.738835 -13.584644
Spine 4.860268 5.474259 -3.893660
Head -4.183032 6.422203 6.833008
LeftShoulder -5.431637 0.949776 22.811307
LeftArm 51.674659 -9.151187 -84.860776
LeftForeArm -24.129590 -0.000000 126.786118
LeftHand -18.197000 -0.000000 7.576833
LeftHandThumb1 -26.253704 0.000000 33.147579
RightShoulder 4.413762 26.477019 -14.389569
RightArm 32.522221 -43.633894 96.056339
RightForeArm -24.780681 0.000000 60.922500
RightHand -11.839872 0.000000 -20.655577
RightHandThumb1 -24.326973 -0.000000 -32.862282
LeftUpLeg -30.992161 10.266808 -2.339397
LeftLeg 18.176478 -0.000000 -0.000000
LeftFoot -31.115706 28.076428 -24.259827
LeftToeBase 8.222722 -0.000000 -0.000000
RightUpLeg -7.696694 -27.404345 -7.397233
RightLeg 32.570693 -0.000000 -0.000000
RightFoot -1.035203 -24.455774 14.375666
RightToeBase 10.542519 -0.000000 -0.000000
3231
root -3.735179 32.313183 -7.390844 34.409543 -33.122389 -13.719810
Spine 5.049192 5.450796 -3.885731
Head -4.574230 6.431110 6.876197
LeftShoulder -5.387313 0.874489 22.821306
LeftArm 51.535368 -9.583604 -85.196772
LeftForeArm -24.394595 -0.000000 127.475757
LeftHand -18.193492 -0.000000 7.549329
LeftHandThumb1 -26.253704 0.000000 33.147579
RightShoulder 4.400000 26.641514 -14.469612
RightArm 32.725463 -43.978976 95.946789
RightForeArm -24.711077 -0.000000 61.039308
RightHand -11.746883 -0.000000 -20.769532
RightHandThumb1 -24.326973 -0.000000 -32.862282
LeftUpLeg -31.107330 10.308123 -2.302272
LeftLeg 18.161489 -0.000000 -0.000000
LeftFoot -31.222817 28.253569 -24.516943
LeftToeBase 8.268340 -0.000000 -0.000000
RightUpLeg -7.988273 -27.047773 -6.893986
RightLeg 30.633803 -0.000000 -0.000000
RightFoot -0.819375 -24.221317 15.176514
RightToeBase 10.509150 -0.000000 -0.000000
3232
root -3.733861 32.318662 -7.424428 34.604210 -33.565435 -13.867301
Spine 5.193891 5.477901 -3.946459
Head -4.870129 6.450469 6.984140
LeftShoulder -5.359489 0.890401 22.858168
LeftArm 51.453609 -9.966906 -85.536193
LeftForeArm -24.563370 -0.000000 128.139738
LeftHand -18.254354 0.000000 7.559530
LeftHandThumb1 -26.253704 0.000000 33.147579
RightShoulder 4.427882 26.741339 -14.490943
RightArm 32.829008 -44.244255 95.978714
RightForeArm -24.821483 0.000000 61.181990
RightHand -11.673657 -0.000000 -20.791019
RightHandThumb1 -24.326973 -0.000000 -32.862282
LeftUpLeg -31.205423 10.509063 -2.312754
LeftLeg 18.160545 -0.000000 -0.000000
LeftFoot -31.309280 28.312656 -24.741888
LeftToeBase 8.180669 -0.000000 -0.000000
RightUpLeg -8.268195 -26.626193 -6.390428
RightLeg 28.671210 -0.000000 -0.000000
RightFoot -0.548106 -24.049937 15.869607
RightToeBase 10.417711 -0.000000 -0.000000
3233
root -3.714183 32.321310 -7.462922 34.772535 -33.931778 -13.964665
Spine 5.380025 5.427881 -3.951381
Head -5.161652 6.488017 7.062913
LeftShoulder -5.362747 0.813857 22.927157
LeftArm 51.345980 -10.253671 -85.981466
LeftForeArm -24.612366 0.000000 128.776590
LeftHand -18.411776 -0.000000 7.357134
LeftHandThumb1 -26.253704 0.000000 33.147579
RightShoulder 4.409725 26.783485 -14.439809
RightArm 33.577068 -45.070656 94.686935
RightForeArm -24.139575 -0.000000 61.826993
RightHand -12.069302 -0.000000 -21.268515
RightHandThumb1 -24.326973 -0.000000 -32.862282
LeftUpLeg -31.355553 10.517272 -2.303330
LeftLeg 18.219460 -0.000000 -0.000000
LeftFoot -31.452046 28.464135 -25.004127
LeftToeBase 8.221825 -0.000000 -0.000000
RightUpLeg -8.583115 -26.326802 -5.885727
RightLeg 26.758323 -0.000000 -0.000000
RightFoot -0.243779 -23.822676 16.425375
RightToeBase 10.242428 -0.000000 -0.000000
3234
root -3.699878 32.322554 -7.502068 34.944871 -34.246378 -14.020282
Spine 5.505844 5.328458 -3.952318
Head -5.372373 6.464788 7.109820
LeftShoulder -5.377772 0.761435 23.000074
LeftArm 51.220829 -10.525491 -86.339090
LeftForeArm -24.702963 -0.000000 129.394571
LeftHand -18.522737 -0.000000 7.318974
LeftHandThumb1 -26.253704 0.000000 33.147579
RightShoulder 4.404649 26.850020 -14.546140
RightArm 33.744179 -45.320573 94.611567
RightForeArm -24.126263 0.000000 62.017527
RightHand -12.014478 -0.000000 -21.319650
RightHandThumb1 -24.326973 -0.000000 -32.862282
LeftUpLeg -31.545788 10.488975 -2.296969
LeftLeg 18.310070 -0.000000 -0.000000
LeftFoot -31.559052 28.586254 -25.243020
LeftToeBase 8.158083 -0.000000 -0.000000
RightUpLeg -8.934777 -26.157555 -5.353946
RightLeg 24.907384 -0.000000 -0.000000
RightFoot 0.012002 -23.525553 16.795908
RightToeBase 10.404896 -0.000000 -0.000000
